<?xml version="1.0" standalone="no"?>
<!DOCTYPE svg PUBLIC "-//W3C//DTD SVG 20010904//EN"
 "http://www.w3.org/TR/2001/REC-SVG-20010904/DTD/svg10.dtd">
<svg version="1.0" xmlns="http://www.w3.org/2000/svg"
 width="119.000000pt" height="119.000000pt" viewBox="0 0 119.000000 119.000000"
 preserveAspectRatio="xMidYMid meet">

<g transform="translate(0.000000,119.000000) scale(0.100000,-0.100000)"
fill="#000000" stroke="none">
<path d="M459 1096 c-168 -47 -319 -200 -363 -371 -20 -74 -20 -213 -1 -284 7
-29 26 -79 42 -109 55 -110 199 -234 287 -249 l36 -6 0 55 0 55 -42 0 c-60 0
-104 26 -129 76 -12 23 -34 56 -51 73 -22 24 -26 33 -15 37 22 8 75 -23 97
-58 42 -67 129 -72 155 -8 9 20 14 37 13 37 -2 1 -25 8 -53 14 -62 16 -112 55
-145 113 -34 61 -36 186 -3 241 16 27 22 53 22 92 -1 80 7 99 39 91 15 -3 48
-16 73 -29 41 -21 51 -22 108 -13 42 7 84 7 129 0 61 -9 70 -8 107 12 54 31
96 40 106 23 5 -7 9 -41 9 -75 0 -46 6 -72 23 -100 17 -30 22 -53 22 -108 -1
-81 -16 -133 -53 -177 -30 -35 -114 -78 -155 -78 l-27 0 17 -27 c14 -21 18
-50 20 -128 0 -55 2 -103 2 -107 2 -16 44 -7 99 19 35 17 84 55 127 98 109
109 155 219 155 375 0 47 -7 113 -16 145 -45 173 -196 325 -368 371 -63 17
-205 17 -267 0z"/>
</g>
</svg>
